<mxfile host="app.diagrams.net" agent="Mozilla/5.0 (Windows NT 10.0; Win64; x64) AppleWebKit/537.36 (KHTML, like Gecko) Chrome/134.0.0.0 Safari/537.36 Edg/134.0.0.0" version="26.1.1">
  <diagram name="Page-1" id="6EPxanhodeDbEyQsHlKV">
    <mxGraphModel dx="1233" dy="986" grid="1" gridSize="10" guides="1" tooltips="1" connect="1" arrows="1" fold="1" page="1" pageScale="1" pageWidth="850" pageHeight="1100" math="0" shadow="0">
      <root>
        <mxCell id="0" />
        <mxCell id="1" parent="0" />
        <mxCell id="t133rngRoD3qEJf_6s0R-7" value="" style="endArrow=none;html=1;rounded=0;exitX=1.015;exitY=-0.095;exitDx=0;exitDy=0;labelBackgroundColor=none;fontColor=default;fontStyle=1;fontFamily=Times New Roman;fontSize=16;exitPerimeter=0;entryX=0.454;entryY=-0.002;entryDx=0;entryDy=0;entryPerimeter=0;" parent="1" source="t133rngRoD3qEJf_6s0R-22" target="t133rngRoD3qEJf_6s0R-9" edge="1">
          <mxGeometry width="50" height="50" relative="1" as="geometry">
            <mxPoint x="1118.9966666666667" y="209.99599999999998" as="sourcePoint" />
            <mxPoint x="1400" y="70" as="targetPoint" />
            <Array as="points">
              <mxPoint x="1439" y="44" />
            </Array>
          </mxGeometry>
        </mxCell>
        <mxCell id="t133rngRoD3qEJf_6s0R-9" value="Employee" style="swimlane;fontStyle=1;align=center;verticalAlign=top;childLayout=stackLayout;horizontal=1;startSize=26;horizontalStack=0;resizeParent=1;resizeLast=0;collapsible=1;marginBottom=0;rounded=0;shadow=0;strokeWidth=1;container=0;labelBackgroundColor=none;fontFamily=Times New Roman;fontSize=16;fillColor=#dae8fc;strokeColor=#6c8ebf;" parent="1" vertex="1">
          <mxGeometry x="1329.9966666666667" y="120" width="240.83333333333334" height="494" as="geometry">
            <mxRectangle x="550" y="140" width="160" height="26" as="alternateBounds" />
          </mxGeometry>
        </mxCell>
        <mxCell id="t133rngRoD3qEJf_6s0R-52" value="Employee_id : int&#xa;&#xa;" style="text;align=left;verticalAlign=top;spacingLeft=4;spacingRight=4;overflow=hidden;rotatable=0;points=[[0,0.5],[1,0.5]];portConstraint=eastwest;container=0;labelBackgroundColor=none;fontStyle=1;fontFamily=Times New Roman;fontSize=16;" parent="t133rngRoD3qEJf_6s0R-9" vertex="1">
          <mxGeometry y="26" width="240.83333333333334" height="26" as="geometry" />
        </mxCell>
        <mxCell id="t133rngRoD3qEJf_6s0R-108" value="Employee_name : varchar" style="text;align=left;verticalAlign=top;spacingLeft=4;spacingRight=4;overflow=hidden;rotatable=0;points=[[0,0.5],[1,0.5]];portConstraint=eastwest;rounded=0;shadow=0;html=0;container=0;labelBackgroundColor=none;fontStyle=1;fontFamily=Times New Roman;fontSize=16;" parent="t133rngRoD3qEJf_6s0R-9" vertex="1">
          <mxGeometry y="52" width="240.83333333333334" height="26" as="geometry" />
        </mxCell>
        <mxCell id="t133rngRoD3qEJf_6s0R-109" value="Employee_age : varchar" style="text;align=left;verticalAlign=top;spacingLeft=4;spacingRight=4;overflow=hidden;rotatable=0;points=[[0,0.5],[1,0.5]];portConstraint=eastwest;rounded=0;shadow=0;html=0;container=0;labelBackgroundColor=none;fontStyle=1;fontFamily=Times New Roman;fontSize=16;" parent="t133rngRoD3qEJf_6s0R-9" vertex="1">
          <mxGeometry y="78" width="240.83333333333334" height="26" as="geometry" />
        </mxCell>
        <mxCell id="t133rngRoD3qEJf_6s0R-110" value="Contact : varchar" style="text;align=left;verticalAlign=top;spacingLeft=4;spacingRight=4;overflow=hidden;rotatable=0;points=[[0,0.5],[1,0.5]];portConstraint=eastwest;rounded=0;shadow=0;html=0;container=0;labelBackgroundColor=none;fontStyle=1;fontFamily=Times New Roman;fontSize=16;" parent="t133rngRoD3qEJf_6s0R-9" vertex="1">
          <mxGeometry y="104" width="240.83333333333334" height="26" as="geometry" />
        </mxCell>
        <mxCell id="t133rngRoD3qEJf_6s0R-106" value="Email_id : varchar" style="text;align=left;verticalAlign=top;spacingLeft=4;spacingRight=4;overflow=hidden;rotatable=0;points=[[0,0.5],[1,0.5]];portConstraint=eastwest;rounded=0;shadow=0;html=0;container=0;labelBackgroundColor=none;fontStyle=1;fontFamily=Times New Roman;fontSize=16;" parent="t133rngRoD3qEJf_6s0R-9" vertex="1">
          <mxGeometry y="130" width="240.83333333333334" height="26" as="geometry" />
        </mxCell>
        <mxCell id="t133rngRoD3qEJf_6s0R-114" value="Reporting_manager" style="text;align=left;verticalAlign=top;spacingLeft=4;spacingRight=4;overflow=hidden;rotatable=0;points=[[0,0.5],[1,0.5]];portConstraint=eastwest;rounded=0;shadow=0;html=0;container=0;labelBackgroundColor=none;fontStyle=1;fontFamily=Times New Roman;fontSize=16;" parent="t133rngRoD3qEJf_6s0R-9" vertex="1">
          <mxGeometry y="156" width="240.83333333333334" height="26" as="geometry" />
        </mxCell>
        <mxCell id="t133rngRoD3qEJf_6s0R-113" value="Image_path" style="text;align=left;verticalAlign=top;spacingLeft=4;spacingRight=4;overflow=hidden;rotatable=0;points=[[0,0.5],[1,0.5]];portConstraint=eastwest;rounded=0;shadow=0;html=0;container=0;labelBackgroundColor=none;fontStyle=1;fontFamily=Times New Roman;fontSize=16;" parent="t133rngRoD3qEJf_6s0R-9" vertex="1">
          <mxGeometry y="182" width="240.83333333333334" height="26" as="geometry" />
        </mxCell>
        <mxCell id="t133rngRoD3qEJf_6s0R-115" value="DOB" style="text;align=left;verticalAlign=top;spacingLeft=4;spacingRight=4;overflow=hidden;rotatable=0;points=[[0,0.5],[1,0.5]];portConstraint=eastwest;rounded=0;shadow=0;html=0;container=0;labelBackgroundColor=none;fontStyle=1;fontFamily=Times New Roman;fontSize=16;" parent="t133rngRoD3qEJf_6s0R-9" vertex="1">
          <mxGeometry y="208" width="240.83333333333334" height="26" as="geometry" />
        </mxCell>
        <mxCell id="t133rngRoD3qEJf_6s0R-118" value="Skills" style="text;align=left;verticalAlign=top;spacingLeft=4;spacingRight=4;overflow=hidden;rotatable=0;points=[[0,0.5],[1,0.5]];portConstraint=eastwest;rounded=0;shadow=0;html=0;container=0;labelBackgroundColor=none;fontStyle=1;fontFamily=Times New Roman;fontSize=16;" parent="t133rngRoD3qEJf_6s0R-9" vertex="1">
          <mxGeometry y="234" width="240.83333333333334" height="26" as="geometry" />
        </mxCell>
        <mxCell id="t133rngRoD3qEJf_6s0R-121" value="Joining_date" style="text;align=left;verticalAlign=top;spacingLeft=4;spacingRight=4;overflow=hidden;rotatable=0;points=[[0,0.5],[1,0.5]];portConstraint=eastwest;rounded=0;shadow=0;html=0;container=0;labelBackgroundColor=none;fontStyle=1;fontFamily=Times New Roman;fontSize=16;" parent="t133rngRoD3qEJf_6s0R-9" vertex="1">
          <mxGeometry y="260" width="240.83333333333334" height="26" as="geometry" />
        </mxCell>
        <mxCell id="t133rngRoD3qEJf_6s0R-120" value="Emergency_contact" style="text;align=left;verticalAlign=top;spacingLeft=4;spacingRight=4;overflow=hidden;rotatable=0;points=[[0,0.5],[1,0.5]];portConstraint=eastwest;rounded=0;shadow=0;html=0;container=0;labelBackgroundColor=none;fontStyle=1;fontFamily=Times New Roman;fontSize=16;" parent="t133rngRoD3qEJf_6s0R-9" vertex="1">
          <mxGeometry y="286" width="240.83333333333334" height="26" as="geometry" />
        </mxCell>
        <mxCell id="t133rngRoD3qEJf_6s0R-119" value="Leave_Request" style="text;align=left;verticalAlign=top;spacingLeft=4;spacingRight=4;overflow=hidden;rotatable=0;points=[[0,0.5],[1,0.5]];portConstraint=eastwest;rounded=0;shadow=0;html=0;container=0;labelBackgroundColor=none;fontStyle=1;fontFamily=Times New Roman;fontSize=16;" parent="t133rngRoD3qEJf_6s0R-9" vertex="1">
          <mxGeometry y="312" width="240.83333333333334" height="26" as="geometry" />
        </mxCell>
        <mxCell id="t133rngRoD3qEJf_6s0R-117" value="Performance" style="text;align=left;verticalAlign=top;spacingLeft=4;spacingRight=4;overflow=hidden;rotatable=0;points=[[0,0.5],[1,0.5]];portConstraint=eastwest;rounded=0;shadow=0;html=0;container=0;labelBackgroundColor=none;fontStyle=1;fontFamily=Times New Roman;fontSize=16;" parent="t133rngRoD3qEJf_6s0R-9" vertex="1">
          <mxGeometry y="338" width="240.83333333333334" height="26" as="geometry" />
        </mxCell>
        <mxCell id="t133rngRoD3qEJf_6s0R-123" value="Attendance" style="text;align=left;verticalAlign=top;spacingLeft=4;spacingRight=4;overflow=hidden;rotatable=0;points=[[0,0.5],[1,0.5]];portConstraint=eastwest;rounded=0;shadow=0;html=0;container=0;labelBackgroundColor=none;fontStyle=1;fontFamily=Times New Roman;fontSize=16;" parent="t133rngRoD3qEJf_6s0R-9" vertex="1">
          <mxGeometry y="364" width="240.83333333333334" height="26" as="geometry" />
        </mxCell>
        <mxCell id="t133rngRoD3qEJf_6s0R-124" value="Address" style="text;align=left;verticalAlign=top;spacingLeft=4;spacingRight=4;overflow=hidden;rotatable=0;points=[[0,0.5],[1,0.5]];portConstraint=eastwest;rounded=0;shadow=0;html=0;container=0;labelBackgroundColor=none;fontStyle=1;fontFamily=Times New Roman;fontSize=16;" parent="t133rngRoD3qEJf_6s0R-9" vertex="1">
          <mxGeometry y="390" width="240.83333333333334" height="26" as="geometry" />
        </mxCell>
        <mxCell id="t133rngRoD3qEJf_6s0R-63" value="" style="group" parent="1" vertex="1" connectable="0">
          <mxGeometry x="1320" y="710" width="240.83" height="332" as="geometry" />
        </mxCell>
        <mxCell id="t133rngRoD3qEJf_6s0R-64" value="Leave_Request" style="swimlane;fontStyle=1;align=center;verticalAlign=top;childLayout=stackLayout;horizontal=1;startSize=26;horizontalStack=0;resizeParent=1;resizeLast=0;collapsible=1;marginBottom=0;rounded=0;shadow=0;strokeWidth=1;labelBackgroundColor=none;fontFamily=Times New Roman;container=0;fontSize=16;fillColor=#dae8fc;strokeColor=#6c8ebf;" parent="t133rngRoD3qEJf_6s0R-63" vertex="1">
          <mxGeometry x="0.0033332871972288035" width="240.82666671280288" height="332" as="geometry">
            <mxRectangle x="550" y="140" width="160" height="26" as="alternateBounds" />
          </mxGeometry>
        </mxCell>
        <mxCell id="t133rngRoD3qEJf_6s0R-66" value="" style="group" parent="t133rngRoD3qEJf_6s0R-63" vertex="1" connectable="0">
          <mxGeometry y="26.15757575757576" width="240.83" height="273.6484848484849" as="geometry" />
        </mxCell>
        <mxCell id="t133rngRoD3qEJf_6s0R-67" value="Employee_id : int&#xa;&#xa;" style="text;align=left;verticalAlign=top;spacingLeft=4;spacingRight=4;overflow=hidden;rotatable=0;points=[[0,0.5],[1,0.5]];portConstraint=eastwest;labelBackgroundColor=none;fontStyle=1;fontFamily=Times New Roman;container=0;fontSize=16;" parent="t133rngRoD3qEJf_6s0R-66" vertex="1">
          <mxGeometry width="240.8300000000001" height="26.15757575757576" as="geometry" />
        </mxCell>
        <mxCell id="t133rngRoD3qEJf_6s0R-68" value="Request_date" style="text;align=left;verticalAlign=top;spacingLeft=4;spacingRight=4;overflow=hidden;rotatable=0;points=[[0,0.5],[1,0.5]];portConstraint=eastwest;rounded=0;shadow=0;html=0;labelBackgroundColor=none;fontStyle=1;fontFamily=Times New Roman;container=0;fontSize=16;" parent="t133rngRoD3qEJf_6s0R-66" vertex="1">
          <mxGeometry y="26.15757575757576" width="240.8300000000001" height="26.15757575757576" as="geometry" />
        </mxCell>
        <mxCell id="t133rngRoD3qEJf_6s0R-69" value="Request_time" style="text;align=left;verticalAlign=top;spacingLeft=4;spacingRight=4;overflow=hidden;rotatable=0;points=[[0,0.5],[1,0.5]];portConstraint=eastwest;rounded=0;shadow=0;html=0;labelBackgroundColor=none;fontStyle=1;fontFamily=Times New Roman;container=0;fontSize=16;" parent="t133rngRoD3qEJf_6s0R-66" vertex="1">
          <mxGeometry y="52.31515151515152" width="240.8300000000001" height="26.15757575757576" as="geometry" />
        </mxCell>
        <mxCell id="t133rngRoD3qEJf_6s0R-70" value="Leave_date" style="text;align=left;verticalAlign=top;spacingLeft=4;spacingRight=4;overflow=hidden;rotatable=0;points=[[0,0.5],[1,0.5]];portConstraint=eastwest;rounded=0;shadow=0;html=0;labelBackgroundColor=none;fontStyle=1;fontFamily=Times New Roman;container=0;fontSize=16;" parent="t133rngRoD3qEJf_6s0R-66" vertex="1">
          <mxGeometry y="78.47272727272727" width="240.8300000000001" height="26.15757575757576" as="geometry" />
        </mxCell>
        <mxCell id="t133rngRoD3qEJf_6s0R-71" value="Status" style="text;align=left;verticalAlign=top;spacingLeft=4;spacingRight=4;overflow=hidden;rotatable=0;points=[[0,0.5],[1,0.5]];portConstraint=eastwest;rounded=0;shadow=0;html=0;labelBackgroundColor=none;fontStyle=1;fontFamily=Times New Roman;container=0;fontSize=16;" parent="t133rngRoD3qEJf_6s0R-66" vertex="1">
          <mxGeometry y="104.63030303030304" width="240.8300000000001" height="26.15757575757576" as="geometry" />
        </mxCell>
        <mxCell id="t133rngRoD3qEJf_6s0R-73" value="Request_message" style="text;align=left;verticalAlign=top;spacingLeft=4;spacingRight=4;overflow=hidden;rotatable=0;points=[[0,0.5],[1,0.5]];portConstraint=eastwest;rounded=0;shadow=0;html=0;labelBackgroundColor=none;fontStyle=1;fontFamily=Times New Roman;container=0;fontSize=16;" parent="t133rngRoD3qEJf_6s0R-66" vertex="1">
          <mxGeometry y="130.78333333333333" width="240.8300000000001" height="26.15757575757576" as="geometry" />
        </mxCell>
        <mxCell id="t133rngRoD3qEJf_6s0R-78" value="" style="group" parent="1" vertex="1" connectable="0">
          <mxGeometry x="1680" y="188" width="180" height="139" as="geometry" />
        </mxCell>
        <mxCell id="t133rngRoD3qEJf_6s0R-79" value="Attendance" style="swimlane;fontStyle=1;align=center;verticalAlign=top;childLayout=stackLayout;horizontal=1;startSize=26;horizontalStack=0;resizeParent=1;resizeLast=0;collapsible=1;marginBottom=0;rounded=0;shadow=0;strokeWidth=1;container=0;labelBackgroundColor=none;fontFamily=Times New Roman;fontSize=16;fillColor=#dae8fc;strokeColor=#6c8ebf;" parent="t133rngRoD3qEJf_6s0R-78" vertex="1">
          <mxGeometry width="179.99999999999994" height="139" as="geometry">
            <mxRectangle x="550" y="140" width="160" height="26" as="alternateBounds" />
          </mxGeometry>
        </mxCell>
        <mxCell id="t133rngRoD3qEJf_6s0R-80" value="Attendance_information" style="text;align=left;verticalAlign=top;spacingLeft=4;spacingRight=4;overflow=hidden;rotatable=0;points=[[0,0.5],[1,0.5]];portConstraint=eastwest;container=0;labelBackgroundColor=none;fontStyle=1;fontFamily=Times New Roman;fontSize=16;" parent="t133rngRoD3qEJf_6s0R-78" vertex="1">
          <mxGeometry y="19.02105263157895" width="179.99999999999994" height="19.02105263157895" as="geometry" />
        </mxCell>
        <mxCell id="t133rngRoD3qEJf_6s0R-81" value="Employee_id : int&#xa;&#xa;" style="text;align=left;verticalAlign=top;spacingLeft=4;spacingRight=4;overflow=hidden;rotatable=0;points=[[0,0.5],[1,0.5]];portConstraint=eastwest;rounded=0;shadow=0;html=0;container=0;labelBackgroundColor=none;fontStyle=1;fontFamily=Times New Roman;fontSize=16;" parent="t133rngRoD3qEJf_6s0R-78" vertex="1">
          <mxGeometry y="38.0421052631579" width="179.99999999999994" height="19.02105263157895" as="geometry" />
        </mxCell>
        <mxCell id="t133rngRoD3qEJf_6s0R-82" value="Add" style="text;align=left;verticalAlign=top;spacingLeft=4;spacingRight=4;overflow=hidden;rotatable=0;points=[[0,0.5],[1,0.5]];portConstraint=eastwest;rounded=0;shadow=0;html=0;container=0;labelBackgroundColor=none;fontStyle=1;fontFamily=Times New Roman;fontSize=16;" parent="t133rngRoD3qEJf_6s0R-78" vertex="1">
          <mxGeometry y="57.06315789473685" width="179.99999999999994" height="19.02105263157895" as="geometry" />
        </mxCell>
        <mxCell id="t133rngRoD3qEJf_6s0R-83" value="Remove" style="text;align=left;verticalAlign=top;spacingLeft=4;spacingRight=4;overflow=hidden;rotatable=0;points=[[0,0.5],[1,0.5]];portConstraint=eastwest;rounded=0;shadow=0;html=0;container=0;labelBackgroundColor=none;fontStyle=1;fontFamily=Times New Roman;fontSize=16;" parent="t133rngRoD3qEJf_6s0R-78" vertex="1">
          <mxGeometry y="76.0842105263158" width="179.99999999999994" height="19.02105263157895" as="geometry" />
        </mxCell>
        <mxCell id="t133rngRoD3qEJf_6s0R-87" value="" style="group" parent="1" vertex="1" connectable="0">
          <mxGeometry x="870" y="510" width="236.66666666666669" height="140" as="geometry" />
        </mxCell>
        <mxCell id="t133rngRoD3qEJf_6s0R-88" value="Team" style="swimlane;fontStyle=1;align=center;verticalAlign=top;childLayout=stackLayout;horizontal=1;startSize=26;horizontalStack=0;resizeParent=1;resizeLast=0;collapsible=1;marginBottom=0;rounded=0;shadow=0;strokeWidth=1;container=0;labelBackgroundColor=none;fontFamily=Times New Roman;fontSize=16;fillColor=#dae8fc;strokeColor=#6c8ebf;" parent="t133rngRoD3qEJf_6s0R-87" vertex="1">
          <mxGeometry width="226.66666666666669" height="140" as="geometry">
            <mxRectangle x="550" y="140" width="160" height="26" as="alternateBounds" />
          </mxGeometry>
        </mxCell>
        <mxCell id="t133rngRoD3qEJf_6s0R-89" value="" style="group" parent="t133rngRoD3qEJf_6s0R-87" vertex="1" connectable="0">
          <mxGeometry y="18" width="236.66666666666669" height="112" as="geometry" />
        </mxCell>
        <mxCell id="t133rngRoD3qEJf_6s0R-90" value="Team_id : int" style="text;align=left;verticalAlign=top;spacingLeft=4;spacingRight=4;overflow=hidden;rotatable=0;points=[[0,0.5],[1,0.5]];portConstraint=eastwest;container=0;labelBackgroundColor=none;fontStyle=1;fontFamily=Times New Roman;fontSize=16;" parent="t133rngRoD3qEJf_6s0R-89" vertex="1">
          <mxGeometry width="226.66666666666669" height="26" as="geometry" />
        </mxCell>
        <mxCell id="t133rngRoD3qEJf_6s0R-91" value="" style="group" parent="t133rngRoD3qEJf_6s0R-89" vertex="1" connectable="0">
          <mxGeometry y="26" width="236.66666666666669" height="86" as="geometry" />
        </mxCell>
        <mxCell id="t133rngRoD3qEJf_6s0R-92" value="Members" style="text;align=left;verticalAlign=top;spacingLeft=4;spacingRight=4;overflow=hidden;rotatable=0;points=[[0,0.5],[1,0.5]];portConstraint=eastwest;rounded=0;shadow=0;html=0;container=0;labelBackgroundColor=none;fontStyle=1;fontFamily=Times New Roman;fontSize=16;" parent="t133rngRoD3qEJf_6s0R-91" vertex="1">
          <mxGeometry width="226.66666666666669" height="26" as="geometry" />
        </mxCell>
        <mxCell id="t133rngRoD3qEJf_6s0R-93" value="description" style="text;align=left;verticalAlign=top;spacingLeft=4;spacingRight=4;overflow=hidden;rotatable=0;points=[[0,0.5],[1,0.5]];portConstraint=eastwest;rounded=0;shadow=0;html=0;container=0;labelBackgroundColor=none;fontStyle=1;fontFamily=Times New Roman;fontSize=16;" parent="t133rngRoD3qEJf_6s0R-91" vertex="1">
          <mxGeometry y="26" width="226.66666666666669" height="26" as="geometry" />
        </mxCell>
        <mxCell id="t133rngRoD3qEJf_6s0R-203" value="Employee_id : int" style="text;align=left;verticalAlign=top;spacingLeft=4;spacingRight=4;overflow=hidden;rotatable=0;points=[[0,0.5],[1,0.5]];portConstraint=eastwest;container=0;labelBackgroundColor=none;fontStyle=1;fontFamily=Times New Roman;fontSize=16;" parent="t133rngRoD3qEJf_6s0R-91" vertex="1">
          <mxGeometry y="52" width="226.66666666666669" height="26" as="geometry" />
        </mxCell>
        <mxCell id="t133rngRoD3qEJf_6s0R-125" value="" style="group;fontStyle=1" parent="1" vertex="1" connectable="0">
          <mxGeometry x="1719.9966666666667" y="420" width="227.66666666666674" height="260" as="geometry" />
        </mxCell>
        <mxCell id="t133rngRoD3qEJf_6s0R-3" value="Day" style="swimlane;fontStyle=1;align=center;verticalAlign=top;childLayout=stackLayout;horizontal=1;startSize=26;horizontalStack=0;resizeParent=1;resizeLast=0;collapsible=1;marginBottom=0;rounded=0;shadow=0;strokeWidth=1;container=0;labelBackgroundColor=none;fontFamily=Times New Roman;fontSize=16;fillColor=#dae8fc;strokeColor=#6c8ebf;" parent="t133rngRoD3qEJf_6s0R-125" vertex="1">
          <mxGeometry x="1" width="226.66666666666669" height="260" as="geometry">
            <mxRectangle x="550" y="140" width="160" height="26" as="alternateBounds" />
          </mxGeometry>
        </mxCell>
        <mxCell id="t133rngRoD3qEJf_6s0R-30" value="Employee_id : int&#xa;&#xa;" style="text;align=left;verticalAlign=top;spacingLeft=4;spacingRight=4;overflow=hidden;rotatable=0;points=[[0,0.5],[1,0.5]];portConstraint=eastwest;container=0;labelBackgroundColor=none;fontStyle=1;fontFamily=Times New Roman;fontSize=16;" parent="t133rngRoD3qEJf_6s0R-125" vertex="1">
          <mxGeometry y="26" width="226.66666666666669" height="26" as="geometry" />
        </mxCell>
        <mxCell id="t133rngRoD3qEJf_6s0R-31" value="isHoliday" style="text;align=left;verticalAlign=top;spacingLeft=4;spacingRight=4;overflow=hidden;rotatable=0;points=[[0,0.5],[1,0.5]];portConstraint=eastwest;rounded=0;shadow=0;html=0;container=0;labelBackgroundColor=none;fontStyle=1;fontFamily=Times New Roman;fontSize=16;" parent="t133rngRoD3qEJf_6s0R-125" vertex="1">
          <mxGeometry y="155" width="226.66666666666669" height="26" as="geometry" />
        </mxCell>
        <mxCell id="t133rngRoD3qEJf_6s0R-32" value="Date" style="text;align=left;verticalAlign=top;spacingLeft=4;spacingRight=4;overflow=hidden;rotatable=0;points=[[0,0.5],[1,0.5]];portConstraint=eastwest;rounded=0;shadow=0;html=0;container=0;labelBackgroundColor=none;fontStyle=1;fontFamily=Times New Roman;fontSize=16;" parent="t133rngRoD3qEJf_6s0R-125" vertex="1">
          <mxGeometry y="49" width="226.66666666666669" height="26" as="geometry" />
        </mxCell>
        <mxCell id="t133rngRoD3qEJf_6s0R-33" value="Checkin" style="text;align=left;verticalAlign=top;spacingLeft=4;spacingRight=4;overflow=hidden;rotatable=0;points=[[0,0.5],[1,0.5]];portConstraint=eastwest;rounded=0;shadow=0;html=0;container=0;labelBackgroundColor=none;fontStyle=1;fontFamily=Times New Roman;fontSize=16;" parent="t133rngRoD3qEJf_6s0R-125" vertex="1">
          <mxGeometry y="75" width="226.66666666666669" height="26" as="geometry" />
        </mxCell>
        <mxCell id="t133rngRoD3qEJf_6s0R-34" value="isLeave_approved" style="text;align=left;verticalAlign=top;spacingLeft=4;spacingRight=4;overflow=hidden;rotatable=0;points=[[0,0.5],[1,0.5]];portConstraint=eastwest;rounded=0;shadow=0;html=0;container=0;labelBackgroundColor=none;fontStyle=1;fontFamily=Times New Roman;fontSize=16;" parent="t133rngRoD3qEJf_6s0R-125" vertex="1">
          <mxGeometry y="129" width="226.66666666666669" height="26" as="geometry" />
        </mxCell>
        <mxCell id="t133rngRoD3qEJf_6s0R-35" value="Checkout" style="text;align=left;verticalAlign=top;spacingLeft=4;spacingRight=4;overflow=hidden;rotatable=0;points=[[0,0.5],[1,0.5]];portConstraint=eastwest;rounded=0;shadow=0;html=0;container=0;labelBackgroundColor=none;fontStyle=1;fontFamily=Times New Roman;fontSize=16;" parent="t133rngRoD3qEJf_6s0R-125" vertex="1">
          <mxGeometry y="102" width="226.66666666666669" height="26" as="geometry" />
        </mxCell>
        <mxCell id="t133rngRoD3qEJf_6s0R-126" value="" style="group" parent="1" vertex="1" connectable="0">
          <mxGeometry x="2018.0866666666668" y="461" width="227.66666666666674" height="260" as="geometry" />
        </mxCell>
        <mxCell id="t133rngRoD3qEJf_6s0R-127" value="Notification" style="swimlane;fontStyle=1;align=center;verticalAlign=top;childLayout=stackLayout;horizontal=1;startSize=26;horizontalStack=0;resizeParent=1;resizeLast=0;collapsible=1;marginBottom=0;rounded=0;shadow=0;strokeWidth=1;container=0;labelBackgroundColor=none;fontFamily=Times New Roman;fontSize=16;fillColor=#dae8fc;strokeColor=#6c8ebf;" parent="t133rngRoD3qEJf_6s0R-126" vertex="1">
          <mxGeometry x="1" width="226.66666666666669" height="260" as="geometry">
            <mxRectangle x="550" y="140" width="160" height="26" as="alternateBounds" />
          </mxGeometry>
        </mxCell>
        <mxCell id="t133rngRoD3qEJf_6s0R-128" value="Notification_id : int&#xa;&#xa;" style="text;align=left;verticalAlign=top;spacingLeft=4;spacingRight=4;overflow=hidden;rotatable=0;points=[[0,0.5],[1,0.5]];portConstraint=eastwest;container=0;labelBackgroundColor=none;fontStyle=1;fontFamily=Times New Roman;fontSize=16;" parent="t133rngRoD3qEJf_6s0R-126" vertex="1">
          <mxGeometry y="26" width="226.66666666666669" height="26" as="geometry" />
        </mxCell>
        <mxCell id="t133rngRoD3qEJf_6s0R-130" value="Date" style="text;align=left;verticalAlign=top;spacingLeft=4;spacingRight=4;overflow=hidden;rotatable=0;points=[[0,0.5],[1,0.5]];portConstraint=eastwest;rounded=0;shadow=0;html=0;container=0;labelBackgroundColor=none;fontStyle=1;fontFamily=Times New Roman;fontSize=16;" parent="t133rngRoD3qEJf_6s0R-126" vertex="1">
          <mxGeometry y="49" width="226.66666666666669" height="26" as="geometry" />
        </mxCell>
        <mxCell id="t133rngRoD3qEJf_6s0R-131" value="Expiry_date" style="text;align=left;verticalAlign=top;spacingLeft=4;spacingRight=4;overflow=hidden;rotatable=0;points=[[0,0.5],[1,0.5]];portConstraint=eastwest;rounded=0;shadow=0;html=0;container=0;labelBackgroundColor=none;fontStyle=1;fontFamily=Times New Roman;fontSize=16;" parent="t133rngRoD3qEJf_6s0R-126" vertex="1">
          <mxGeometry y="75" width="226.66666666666669" height="26" as="geometry" />
        </mxCell>
        <mxCell id="t133rngRoD3qEJf_6s0R-132" value="Target_department" style="text;align=left;verticalAlign=top;spacingLeft=4;spacingRight=4;overflow=hidden;rotatable=0;points=[[0,0.5],[1,0.5]];portConstraint=eastwest;rounded=0;shadow=0;html=0;container=0;labelBackgroundColor=none;fontStyle=1;fontFamily=Times New Roman;fontSize=16;" parent="t133rngRoD3qEJf_6s0R-126" vertex="1">
          <mxGeometry y="129" width="226.66666666666669" height="26" as="geometry" />
        </mxCell>
        <mxCell id="t133rngRoD3qEJf_6s0R-133" value="Target_designation" style="text;align=left;verticalAlign=top;spacingLeft=4;spacingRight=4;overflow=hidden;rotatable=0;points=[[0,0.5],[1,0.5]];portConstraint=eastwest;rounded=0;shadow=0;html=0;container=0;labelBackgroundColor=none;fontStyle=1;fontFamily=Times New Roman;fontSize=16;" parent="t133rngRoD3qEJf_6s0R-126" vertex="1">
          <mxGeometry y="102" width="226.66666666666669" height="26" as="geometry" />
        </mxCell>
        <mxCell id="t133rngRoD3qEJf_6s0R-134" value="" style="group" parent="1" vertex="1" connectable="0">
          <mxGeometry x="900" y="20" width="250.33333333333337" height="216" as="geometry" />
        </mxCell>
        <mxCell id="t133rngRoD3qEJf_6s0R-2" value="Admin" style="swimlane;fontStyle=1;align=center;verticalAlign=top;childLayout=stackLayout;horizontal=1;startSize=26;horizontalStack=0;resizeParent=1;resizeLast=0;collapsible=1;marginBottom=0;rounded=0;shadow=0;strokeWidth=1;container=0;labelBackgroundColor=none;fontFamily=Times New Roman;fontSize=16;fillColor=#dae8fc;strokeColor=#6c8ebf;" parent="t133rngRoD3qEJf_6s0R-134" vertex="1">
          <mxGeometry width="226.66666666666669" height="216" as="geometry">
            <mxRectangle x="230" y="140" width="160" height="26" as="alternateBounds" />
          </mxGeometry>
        </mxCell>
        <mxCell id="t133rngRoD3qEJf_6s0R-15" value="&lt;font style=&quot;font-size: 16px;&quot;&gt;1&lt;/font&gt;" style="text;html=1;align=center;verticalAlign=middle;resizable=0;points=[];autosize=1;strokeColor=none;fillColor=none;container=0;labelBackgroundColor=none;fontStyle=1;fontFamily=Times New Roman;fontSize=16;" parent="t133rngRoD3qEJf_6s0R-134" vertex="1">
          <mxGeometry x="240.0033333333334" width="30" height="30" as="geometry" />
        </mxCell>
        <mxCell id="t133rngRoD3qEJf_6s0R-22" value="Admin_id : int " style="text;align=left;verticalAlign=top;spacingLeft=4;spacingRight=4;overflow=hidden;rotatable=0;points=[[0,0.5],[1,0.5]];portConstraint=eastwest;container=0;labelBackgroundColor=none;fontStyle=1;fontFamily=Times New Roman;fontSize=16;" parent="t133rngRoD3qEJf_6s0R-134" vertex="1">
          <mxGeometry y="26" width="226.66666666666669" height="26" as="geometry" />
        </mxCell>
        <mxCell id="t133rngRoD3qEJf_6s0R-23" value="Admin_name : varchar" style="text;align=left;verticalAlign=top;spacingLeft=4;spacingRight=4;overflow=hidden;rotatable=0;points=[[0,0.5],[1,0.5]];portConstraint=eastwest;rounded=0;shadow=0;html=0;container=0;labelBackgroundColor=none;fontStyle=1;fontFamily=Times New Roman;fontSize=16;" parent="t133rngRoD3qEJf_6s0R-134" vertex="1">
          <mxGeometry y="52" width="226.66666666666669" height="26" as="geometry" />
        </mxCell>
        <mxCell id="t133rngRoD3qEJf_6s0R-24" value="Email_id : varchar" style="text;align=left;verticalAlign=top;spacingLeft=4;spacingRight=4;overflow=hidden;rotatable=0;points=[[0,0.5],[1,0.5]];portConstraint=eastwest;rounded=0;shadow=0;html=0;container=0;labelBackgroundColor=none;fontStyle=1;fontFamily=Times New Roman;fontSize=16;" parent="t133rngRoD3qEJf_6s0R-134" vertex="1">
          <mxGeometry y="78" width="226.66666666666669" height="26" as="geometry" />
        </mxCell>
        <mxCell id="t133rngRoD3qEJf_6s0R-25" value="Password : varchar" style="text;align=left;verticalAlign=top;spacingLeft=4;spacingRight=4;overflow=hidden;rotatable=0;points=[[0,0.5],[1,0.5]];portConstraint=eastwest;container=0;labelBackgroundColor=none;fontStyle=1;fontFamily=Times New Roman;fontSize=16;" parent="t133rngRoD3qEJf_6s0R-134" vertex="1">
          <mxGeometry y="104" width="226.66666666666669" height="26" as="geometry" />
        </mxCell>
        <mxCell id="t133rngRoD3qEJf_6s0R-26" value="" style="line;html=1;strokeWidth=1;align=left;verticalAlign=middle;spacingTop=-1;spacingLeft=3;spacingRight=3;rotatable=0;labelPosition=right;points=[];portConstraint=eastwest;container=0;labelBackgroundColor=none;fontStyle=1;fontFamily=Times New Roman;fontSize=16;" parent="t133rngRoD3qEJf_6s0R-134" vertex="1">
          <mxGeometry y="130" width="226.66666666666669" height="8" as="geometry" />
        </mxCell>
        <mxCell id="t133rngRoD3qEJf_6s0R-27" value="Login();" style="text;align=left;verticalAlign=top;spacingLeft=4;spacingRight=4;overflow=hidden;rotatable=0;points=[[0,0.5],[1,0.5]];portConstraint=eastwest;container=0;labelBackgroundColor=none;fontStyle=1;fontFamily=Times New Roman;fontSize=16;" parent="t133rngRoD3qEJf_6s0R-134" vertex="1">
          <mxGeometry y="138" width="226.66666666666669" height="26" as="geometry" />
        </mxCell>
        <mxCell id="t133rngRoD3qEJf_6s0R-28" value="Change_password();" style="text;align=left;verticalAlign=top;spacingLeft=4;spacingRight=4;overflow=hidden;rotatable=0;points=[[0,0.5],[1,0.5]];portConstraint=eastwest;container=0;labelBackgroundColor=none;fontStyle=1;fontFamily=Times New Roman;fontSize=16;" parent="t133rngRoD3qEJf_6s0R-134" vertex="1">
          <mxGeometry y="164" width="226.66666666666669" height="26" as="geometry" />
        </mxCell>
        <mxCell id="t133rngRoD3qEJf_6s0R-29" value="Forget_password();" style="text;align=left;verticalAlign=top;spacingLeft=4;spacingRight=4;overflow=hidden;rotatable=0;points=[[0,0.5],[1,0.5]];portConstraint=eastwest;container=0;labelBackgroundColor=none;fontStyle=1;fontFamily=Times New Roman;fontSize=16;" parent="t133rngRoD3qEJf_6s0R-134" vertex="1">
          <mxGeometry y="190" width="226.66666666666669" height="26" as="geometry" />
        </mxCell>
        <mxCell id="t133rngRoD3qEJf_6s0R-135" value="" style="group" parent="1" vertex="1" connectable="0">
          <mxGeometry x="1020" y="760" width="246.66666666666669" height="140" as="geometry" />
        </mxCell>
        <mxCell id="t133rngRoD3qEJf_6s0R-136" value="Department" style="swimlane;fontStyle=1;align=center;verticalAlign=top;childLayout=stackLayout;horizontal=1;startSize=26;horizontalStack=0;resizeParent=1;resizeLast=0;collapsible=1;marginBottom=0;rounded=0;shadow=0;strokeWidth=1;container=0;labelBackgroundColor=none;fontFamily=Times New Roman;fontSize=16;fillColor=#dae8fc;strokeColor=#6c8ebf;" parent="t133rngRoD3qEJf_6s0R-135" vertex="1">
          <mxGeometry width="226.66666666666669" height="140" as="geometry">
            <mxRectangle x="550" y="140" width="160" height="26" as="alternateBounds" />
          </mxGeometry>
        </mxCell>
        <mxCell id="t133rngRoD3qEJf_6s0R-137" value="" style="group" parent="t133rngRoD3qEJf_6s0R-135" vertex="1" connectable="0">
          <mxGeometry y="18" width="246.66666666666669" height="112" as="geometry" />
        </mxCell>
        <mxCell id="t133rngRoD3qEJf_6s0R-138" value="Department_id : int" style="text;align=left;verticalAlign=top;spacingLeft=4;spacingRight=4;overflow=hidden;rotatable=0;points=[[0,0.5],[1,0.5]];portConstraint=eastwest;container=0;labelBackgroundColor=none;fontStyle=1;fontFamily=Times New Roman;fontSize=16;" parent="t133rngRoD3qEJf_6s0R-137" vertex="1">
          <mxGeometry width="226.66666666666669" height="26" as="geometry" />
        </mxCell>
        <mxCell id="t133rngRoD3qEJf_6s0R-139" value="" style="group" parent="t133rngRoD3qEJf_6s0R-137" vertex="1" connectable="0">
          <mxGeometry y="26" width="246.66666666666669" height="86" as="geometry" />
        </mxCell>
        <mxCell id="t133rngRoD3qEJf_6s0R-140" value="Name" style="text;align=left;verticalAlign=top;spacingLeft=4;spacingRight=4;overflow=hidden;rotatable=0;points=[[0,0.5],[1,0.5]];portConstraint=eastwest;rounded=0;shadow=0;html=0;container=0;labelBackgroundColor=none;fontStyle=1;fontFamily=Times New Roman;fontSize=16;" parent="t133rngRoD3qEJf_6s0R-139" vertex="1">
          <mxGeometry width="226.66666666666669" height="26" as="geometry" />
        </mxCell>
        <mxCell id="t133rngRoD3qEJf_6s0R-141" value="description" style="text;align=left;verticalAlign=top;spacingLeft=4;spacingRight=4;overflow=hidden;rotatable=0;points=[[0,0.5],[1,0.5]];portConstraint=eastwest;rounded=0;shadow=0;html=0;container=0;labelBackgroundColor=none;fontStyle=1;fontFamily=Times New Roman;fontSize=16;" parent="t133rngRoD3qEJf_6s0R-139" vertex="1">
          <mxGeometry y="26" width="226.66666666666669" height="26" as="geometry" />
        </mxCell>
        <mxCell id="t133rngRoD3qEJf_6s0R-204" value="Employee_id : int" style="text;align=left;verticalAlign=top;spacingLeft=4;spacingRight=4;overflow=hidden;rotatable=0;points=[[0,0.5],[1,0.5]];portConstraint=eastwest;container=0;labelBackgroundColor=none;fontStyle=1;fontFamily=Times New Roman;fontSize=16;" parent="t133rngRoD3qEJf_6s0R-139" vertex="1">
          <mxGeometry y="52" width="226.66666666666669" height="26" as="geometry" />
        </mxCell>
        <mxCell id="t133rngRoD3qEJf_6s0R-144" value="" style="group" parent="1" vertex="1" connectable="0">
          <mxGeometry x="1610" y="751" width="226.66666666666674" height="140" as="geometry" />
        </mxCell>
        <mxCell id="t133rngRoD3qEJf_6s0R-145" value="Designation" style="swimlane;fontStyle=1;align=center;verticalAlign=top;childLayout=stackLayout;horizontal=1;startSize=26;horizontalStack=0;resizeParent=1;resizeLast=0;collapsible=1;marginBottom=0;rounded=0;shadow=0;strokeWidth=1;container=0;labelBackgroundColor=none;fontFamily=Times New Roman;fontSize=16;fillColor=#dae8fc;strokeColor=#6c8ebf;" parent="t133rngRoD3qEJf_6s0R-144" vertex="1">
          <mxGeometry width="226.66666666666669" height="140" as="geometry">
            <mxRectangle x="550" y="140" width="160" height="26" as="alternateBounds" />
          </mxGeometry>
        </mxCell>
        <mxCell id="t133rngRoD3qEJf_6s0R-146" value="" style="group" parent="t133rngRoD3qEJf_6s0R-144" vertex="1" connectable="0">
          <mxGeometry y="18" width="226.66666666666674" height="112" as="geometry" />
        </mxCell>
        <mxCell id="t133rngRoD3qEJf_6s0R-147" value="Designation_id : int" style="text;align=left;verticalAlign=top;spacingLeft=4;spacingRight=4;overflow=hidden;rotatable=0;points=[[0,0.5],[1,0.5]];portConstraint=eastwest;container=0;labelBackgroundColor=none;fontStyle=1;fontFamily=Times New Roman;fontSize=16;" parent="t133rngRoD3qEJf_6s0R-146" vertex="1">
          <mxGeometry width="226.66666666666669" height="26" as="geometry" />
        </mxCell>
        <mxCell id="t133rngRoD3qEJf_6s0R-148" value="" style="group" parent="t133rngRoD3qEJf_6s0R-146" vertex="1" connectable="0">
          <mxGeometry y="26" width="226.66666666666669" height="86" as="geometry" />
        </mxCell>
        <mxCell id="t133rngRoD3qEJf_6s0R-149" value="Name" style="text;align=left;verticalAlign=top;spacingLeft=4;spacingRight=4;overflow=hidden;rotatable=0;points=[[0,0.5],[1,0.5]];portConstraint=eastwest;rounded=0;shadow=0;html=0;container=0;labelBackgroundColor=none;fontStyle=1;fontFamily=Times New Roman;fontSize=16;" parent="t133rngRoD3qEJf_6s0R-148" vertex="1">
          <mxGeometry width="226.66666666666669" height="26" as="geometry" />
        </mxCell>
        <mxCell id="t133rngRoD3qEJf_6s0R-150" value="description" style="text;align=left;verticalAlign=top;spacingLeft=4;spacingRight=4;overflow=hidden;rotatable=0;points=[[0,0.5],[1,0.5]];portConstraint=eastwest;rounded=0;shadow=0;html=0;container=0;labelBackgroundColor=none;fontStyle=1;fontFamily=Times New Roman;fontSize=16;" parent="t133rngRoD3qEJf_6s0R-148" vertex="1">
          <mxGeometry y="26" width="226.66666666666669" height="26" as="geometry" />
        </mxCell>
        <mxCell id="t133rngRoD3qEJf_6s0R-206" value="Employee_id : int" style="text;align=left;verticalAlign=top;spacingLeft=4;spacingRight=4;overflow=hidden;rotatable=0;points=[[0,0.5],[1,0.5]];portConstraint=eastwest;container=0;labelBackgroundColor=none;fontStyle=1;fontFamily=Times New Roman;fontSize=16;" parent="t133rngRoD3qEJf_6s0R-148" vertex="1">
          <mxGeometry y="55" width="226.66666666666669" height="26" as="geometry" />
        </mxCell>
        <mxCell id="t133rngRoD3qEJf_6s0R-153" value="" style="group" parent="1" vertex="1" connectable="0">
          <mxGeometry x="1610" y="920" width="226.66666666666674" height="140" as="geometry" />
        </mxCell>
        <mxCell id="t133rngRoD3qEJf_6s0R-154" value="Help" style="swimlane;fontStyle=1;align=center;verticalAlign=top;childLayout=stackLayout;horizontal=1;startSize=26;horizontalStack=0;resizeParent=1;resizeLast=0;collapsible=1;marginBottom=0;rounded=0;shadow=0;strokeWidth=1;container=0;labelBackgroundColor=none;fontFamily=Times New Roman;fontSize=16;fillColor=#dae8fc;strokeColor=#6c8ebf;" parent="t133rngRoD3qEJf_6s0R-153" vertex="1">
          <mxGeometry width="226.66666666666669" height="140" as="geometry">
            <mxRectangle x="550" y="140" width="160" height="26" as="alternateBounds" />
          </mxGeometry>
        </mxCell>
        <mxCell id="t133rngRoD3qEJf_6s0R-155" value="" style="group" parent="t133rngRoD3qEJf_6s0R-153" vertex="1" connectable="0">
          <mxGeometry y="18" width="226.66666666666674" height="112" as="geometry" />
        </mxCell>
        <mxCell id="t133rngRoD3qEJf_6s0R-156" value="Email_id" style="text;align=left;verticalAlign=top;spacingLeft=4;spacingRight=4;overflow=hidden;rotatable=0;points=[[0,0.5],[1,0.5]];portConstraint=eastwest;container=0;labelBackgroundColor=none;fontStyle=1;fontFamily=Times New Roman;fontSize=16;" parent="t133rngRoD3qEJf_6s0R-155" vertex="1">
          <mxGeometry width="226.66666666666669" height="26" as="geometry" />
        </mxCell>
        <mxCell id="t133rngRoD3qEJf_6s0R-157" value="" style="group" parent="t133rngRoD3qEJf_6s0R-155" vertex="1" connectable="0">
          <mxGeometry y="26" width="226.66666666666669" height="86" as="geometry" />
        </mxCell>
        <mxCell id="t133rngRoD3qEJf_6s0R-158" value="Contact" style="text;align=left;verticalAlign=top;spacingLeft=4;spacingRight=4;overflow=hidden;rotatable=0;points=[[0,0.5],[1,0.5]];portConstraint=eastwest;rounded=0;shadow=0;html=0;container=0;labelBackgroundColor=none;fontStyle=1;fontFamily=Times New Roman;fontSize=16;" parent="t133rngRoD3qEJf_6s0R-157" vertex="1">
          <mxGeometry width="226.66666666666669" height="26" as="geometry" />
        </mxCell>
        <mxCell id="t133rngRoD3qEJf_6s0R-164" value="" style="group" parent="1" vertex="1" connectable="0">
          <mxGeometry x="899.25" y="260" width="230.75" height="222" as="geometry" />
        </mxCell>
        <mxCell id="t133rngRoD3qEJf_6s0R-4" value="Employee_performance" style="swimlane;fontStyle=1;align=center;verticalAlign=top;childLayout=stackLayout;horizontal=1;startSize=26;horizontalStack=0;resizeParent=1;resizeLast=0;collapsible=1;marginBottom=0;rounded=0;shadow=0;strokeWidth=1;container=0;labelBackgroundColor=none;fontFamily=Times New Roman;fontSize=16;fillColor=#dae8fc;strokeColor=#6c8ebf;" parent="t133rngRoD3qEJf_6s0R-164" vertex="1">
          <mxGeometry x="0.75" width="230" height="222" as="geometry">
            <mxRectangle x="550" y="140" width="160" height="26" as="alternateBounds" />
          </mxGeometry>
        </mxCell>
        <mxCell id="t133rngRoD3qEJf_6s0R-38" value="performance_id : int" style="text;align=left;verticalAlign=top;spacingLeft=4;spacingRight=4;overflow=hidden;rotatable=0;points=[[0,0.5],[1,0.5]];portConstraint=eastwest;container=0;labelBackgroundColor=none;fontStyle=1;fontFamily=Times New Roman;fontSize=16;" parent="t133rngRoD3qEJf_6s0R-164" vertex="1">
          <mxGeometry x="0.75" y="26" width="226.66666666666669" height="26" as="geometry" />
        </mxCell>
        <mxCell id="t133rngRoD3qEJf_6s0R-39" value="Employee_id : int" style="text;align=left;verticalAlign=top;spacingLeft=4;spacingRight=4;overflow=hidden;rotatable=0;points=[[0,0.5],[1,0.5]];portConstraint=eastwest;rounded=0;shadow=0;html=0;container=0;labelBackgroundColor=none;fontStyle=1;fontFamily=Times New Roman;fontSize=16;" parent="t133rngRoD3qEJf_6s0R-164" vertex="1">
          <mxGeometry x="0.75" y="52" width="226.66666666666669" height="26" as="geometry" />
        </mxCell>
        <mxCell id="t133rngRoD3qEJf_6s0R-40" value="Punctuality_score" style="text;align=left;verticalAlign=top;spacingLeft=4;spacingRight=4;overflow=hidden;rotatable=0;points=[[0,0.5],[1,0.5]];portConstraint=eastwest;rounded=0;shadow=0;html=0;container=0;labelBackgroundColor=none;fontStyle=1;fontFamily=Times New Roman;fontSize=16;" parent="t133rngRoD3qEJf_6s0R-164" vertex="1">
          <mxGeometry x="0.75" y="78" width="226.66666666666669" height="26" as="geometry" />
        </mxCell>
        <mxCell id="t133rngRoD3qEJf_6s0R-41" value="Softskill_score" style="text;align=left;verticalAlign=top;spacingLeft=4;spacingRight=4;overflow=hidden;rotatable=0;points=[[0,0.5],[1,0.5]];portConstraint=eastwest;rounded=0;shadow=0;html=0;container=0;labelBackgroundColor=none;fontStyle=1;fontFamily=Times New Roman;fontSize=16;" parent="t133rngRoD3qEJf_6s0R-164" vertex="1">
          <mxGeometry x="0.75" y="104" width="226.66666666666669" height="26" as="geometry" />
        </mxCell>
        <mxCell id="t133rngRoD3qEJf_6s0R-42" value="Performance_score" style="text;align=left;verticalAlign=top;spacingLeft=4;spacingRight=4;overflow=hidden;rotatable=0;points=[[0,0.5],[1,0.5]];portConstraint=eastwest;rounded=0;shadow=0;html=0;container=0;labelBackgroundColor=none;fontStyle=1;fontFamily=Times New Roman;fontSize=16;" parent="t133rngRoD3qEJf_6s0R-164" vertex="1">
          <mxGeometry x="0.75" y="130" width="226.66666666666669" height="26" as="geometry" />
        </mxCell>
        <mxCell id="t133rngRoD3qEJf_6s0R-104" value="Creativity_score" style="text;align=left;verticalAlign=top;spacingLeft=4;spacingRight=4;overflow=hidden;rotatable=0;points=[[0,0.5],[1,0.5]];portConstraint=eastwest;rounded=0;shadow=0;html=0;container=0;labelBackgroundColor=none;fontStyle=1;fontFamily=Times New Roman;fontSize=16;" parent="t133rngRoD3qEJf_6s0R-164" vertex="1">
          <mxGeometry y="154" width="226.66666666666669" height="26" as="geometry" />
        </mxCell>
        <mxCell id="t133rngRoD3qEJf_6s0R-163" value="CriticalThinking_score" style="text;align=left;verticalAlign=top;spacingLeft=4;spacingRight=4;overflow=hidden;rotatable=0;points=[[0,0.5],[1,0.5]];portConstraint=eastwest;rounded=0;shadow=0;html=0;container=0;labelBackgroundColor=none;fontStyle=1;fontFamily=Times New Roman;fontSize=16;" parent="t133rngRoD3qEJf_6s0R-164" vertex="1">
          <mxGeometry x="0.75" y="179" width="220" height="40" as="geometry" />
        </mxCell>
        <mxCell id="t133rngRoD3qEJf_6s0R-166" value="" style="group" parent="1" vertex="1" connectable="0">
          <mxGeometry x="1870" y="843" width="226.66666666666674" height="140" as="geometry" />
        </mxCell>
        <mxCell id="t133rngRoD3qEJf_6s0R-167" value="FAQ" style="swimlane;fontStyle=1;align=center;verticalAlign=top;childLayout=stackLayout;horizontal=1;startSize=26;horizontalStack=0;resizeParent=1;resizeLast=0;collapsible=1;marginBottom=0;rounded=0;shadow=0;strokeWidth=1;container=0;labelBackgroundColor=none;fontFamily=Times New Roman;fontSize=16;fillColor=#dae8fc;strokeColor=#6c8ebf;" parent="t133rngRoD3qEJf_6s0R-166" vertex="1">
          <mxGeometry width="226.66666666666669" height="140" as="geometry">
            <mxRectangle x="550" y="140" width="160" height="26" as="alternateBounds" />
          </mxGeometry>
        </mxCell>
        <mxCell id="t133rngRoD3qEJf_6s0R-168" value="" style="group" parent="t133rngRoD3qEJf_6s0R-166" vertex="1" connectable="0">
          <mxGeometry y="18" width="226.66666666666674" height="112" as="geometry" />
        </mxCell>
        <mxCell id="t133rngRoD3qEJf_6s0R-169" value="Faq_id : int" style="text;align=left;verticalAlign=top;spacingLeft=4;spacingRight=4;overflow=hidden;rotatable=0;points=[[0,0.5],[1,0.5]];portConstraint=eastwest;container=0;labelBackgroundColor=none;fontStyle=1;fontFamily=Times New Roman;fontSize=16;" parent="t133rngRoD3qEJf_6s0R-168" vertex="1">
          <mxGeometry width="226.66666666666669" height="26" as="geometry" />
        </mxCell>
        <mxCell id="t133rngRoD3qEJf_6s0R-170" value="" style="group" parent="t133rngRoD3qEJf_6s0R-168" vertex="1" connectable="0">
          <mxGeometry y="26" width="226.66666666666669" height="86" as="geometry" />
        </mxCell>
        <mxCell id="t133rngRoD3qEJf_6s0R-171" value="Question" style="text;align=left;verticalAlign=top;spacingLeft=4;spacingRight=4;overflow=hidden;rotatable=0;points=[[0,0.5],[1,0.5]];portConstraint=eastwest;rounded=0;shadow=0;html=0;container=0;labelBackgroundColor=none;fontStyle=1;fontFamily=Times New Roman;fontSize=16;" parent="t133rngRoD3qEJf_6s0R-170" vertex="1">
          <mxGeometry width="226.66666666666669" height="26" as="geometry" />
        </mxCell>
        <mxCell id="t133rngRoD3qEJf_6s0R-172" value="Answer" style="text;align=left;verticalAlign=top;spacingLeft=4;spacingRight=4;overflow=hidden;rotatable=0;points=[[0,0.5],[1,0.5]];portConstraint=eastwest;rounded=0;shadow=0;html=0;container=0;labelBackgroundColor=none;fontStyle=1;fontFamily=Times New Roman;fontSize=16;" parent="t133rngRoD3qEJf_6s0R-170" vertex="1">
          <mxGeometry y="26" width="226.66666666666669" height="26" as="geometry" />
        </mxCell>
        <mxCell id="t133rngRoD3qEJf_6s0R-173" value="" style="line;html=1;strokeWidth=1;align=left;verticalAlign=middle;spacingTop=-1;spacingLeft=3;spacingRight=3;rotatable=0;labelPosition=right;points=[];portConstraint=eastwest;container=0;labelBackgroundColor=none;fontStyle=1;fontFamily=Times New Roman;fontSize=16;" parent="t133rngRoD3qEJf_6s0R-170" vertex="1">
          <mxGeometry y="52" width="226.66666666666669" height="8" as="geometry" />
        </mxCell>
        <mxCell id="t133rngRoD3qEJf_6s0R-174" value="Manage_feedback();" style="text;align=left;verticalAlign=top;spacingLeft=4;spacingRight=4;overflow=hidden;rotatable=0;points=[[0,0.5],[1,0.5]];portConstraint=eastwest;rounded=0;shadow=0;html=0;container=0;labelBackgroundColor=none;fontStyle=1;fontFamily=Times New Roman;fontSize=16;" parent="t133rngRoD3qEJf_6s0R-170" vertex="1">
          <mxGeometry y="60" width="226.66666666666669" height="26" as="geometry" />
        </mxCell>
        <mxCell id="t133rngRoD3qEJf_6s0R-175" value="" style="group" parent="1" vertex="1" connectable="0">
          <mxGeometry x="2004" y="90" width="241.75" height="314" as="geometry" />
        </mxCell>
        <mxCell id="t133rngRoD3qEJf_6s0R-5" value="Upcoming_event" style="swimlane;fontStyle=1;align=center;verticalAlign=top;childLayout=stackLayout;horizontal=1;startSize=26;horizontalStack=0;resizeParent=1;resizeLast=0;collapsible=1;marginBottom=0;rounded=0;shadow=0;strokeWidth=1;container=0;labelBackgroundColor=none;fontFamily=Times New Roman;fontSize=16;fillColor=#dae8fc;strokeColor=#6c8ebf;" parent="t133rngRoD3qEJf_6s0R-175" vertex="1">
          <mxGeometry width="240.83" height="314" as="geometry">
            <mxRectangle x="550" y="140" width="160" height="26" as="alternateBounds" />
          </mxGeometry>
        </mxCell>
        <mxCell id="t133rngRoD3qEJf_6s0R-45" value="Description" style="text;align=left;verticalAlign=top;spacingLeft=4;spacingRight=4;overflow=hidden;rotatable=0;points=[[0,0.5],[1,0.5]];portConstraint=eastwest;rounded=0;shadow=0;html=0;container=0;labelBackgroundColor=none;fontStyle=1;fontFamily=Times New Roman;fontSize=16;" parent="t133rngRoD3qEJf_6s0R-175" vertex="1">
          <mxGeometry y="118" width="240.83333333333334" height="26" as="geometry" />
        </mxCell>
        <mxCell id="t133rngRoD3qEJf_6s0R-58" value="Event_id : int" style="text;align=left;verticalAlign=top;spacingLeft=4;spacingRight=4;overflow=hidden;rotatable=0;points=[[0,0.5],[1,0.5]];portConstraint=eastwest;container=0;labelBackgroundColor=none;fontStyle=1;fontFamily=Times New Roman;fontSize=16;" parent="t133rngRoD3qEJf_6s0R-175" vertex="1">
          <mxGeometry y="20" width="240.83" height="26" as="geometry" />
        </mxCell>
        <mxCell id="t133rngRoD3qEJf_6s0R-59" value="Event_date" style="text;align=left;verticalAlign=top;spacingLeft=4;spacingRight=4;overflow=hidden;rotatable=0;points=[[0,0.5],[1,0.5]];portConstraint=eastwest;rounded=0;shadow=0;html=0;container=0;labelBackgroundColor=none;fontStyle=1;fontFamily=Times New Roman;fontSize=16;" parent="t133rngRoD3qEJf_6s0R-175" vertex="1">
          <mxGeometry x="0.9199999999999591" y="69" width="240.83" height="26" as="geometry" />
        </mxCell>
        <mxCell id="t133rngRoD3qEJf_6s0R-60" value="Name" style="text;align=left;verticalAlign=top;spacingLeft=4;spacingRight=4;overflow=hidden;rotatable=0;points=[[0,0.5],[1,0.5]];portConstraint=eastwest;container=0;labelBackgroundColor=none;fontStyle=1;fontFamily=Times New Roman;fontSize=16;" parent="t133rngRoD3qEJf_6s0R-175" vertex="1">
          <mxGeometry y="44" width="240.83" height="26" as="geometry" />
        </mxCell>
        <mxCell id="t133rngRoD3qEJf_6s0R-61" value="Event_time" style="text;align=left;verticalAlign=top;spacingLeft=4;spacingRight=4;overflow=hidden;rotatable=0;points=[[0,0.5],[1,0.5]];portConstraint=eastwest;rounded=0;shadow=0;html=0;container=0;labelBackgroundColor=none;fontStyle=1;fontFamily=Times New Roman;fontSize=16;" parent="t133rngRoD3qEJf_6s0R-175" vertex="1">
          <mxGeometry y="93" width="240.83" height="26" as="geometry" />
        </mxCell>
        <mxCell id="t133rngRoD3qEJf_6s0R-176" value="*" style="text;html=1;align=center;verticalAlign=middle;resizable=0;points=[];autosize=1;strokeColor=none;fillColor=none;container=0;labelBackgroundColor=none;fontStyle=1;fontFamily=Times New Roman;fontSize=16;" parent="1" vertex="1">
          <mxGeometry x="1450.0033333333336" y="80" width="30" height="30" as="geometry" />
        </mxCell>
        <mxCell id="t133rngRoD3qEJf_6s0R-177" value="" style="endArrow=none;html=1;rounded=0;exitX=1;exitY=0.5;exitDx=0;exitDy=0;labelBackgroundColor=none;fontColor=default;fontStyle=1;fontFamily=Times New Roman;fontSize=16;entryX=0;entryY=0.996;entryDx=0;entryDy=0;entryPerimeter=0;" parent="1" source="t133rngRoD3qEJf_6s0R-106" target="t133rngRoD3qEJf_6s0R-82" edge="1">
          <mxGeometry width="50" height="50" relative="1" as="geometry">
            <mxPoint x="1128.9966666666667" y="219.99599999999998" as="sourcePoint" />
            <mxPoint x="1339" y="222" as="targetPoint" />
          </mxGeometry>
        </mxCell>
        <mxCell id="t133rngRoD3qEJf_6s0R-179" value="" style="endArrow=none;html=1;rounded=0;labelBackgroundColor=none;fontColor=default;fontStyle=1;fontFamily=Times New Roman;fontSize=16;exitX=-0.028;exitY=1.333;exitDx=0;exitDy=0;entryX=0.25;entryY=1;entryDx=0;entryDy=0;exitPerimeter=0;" parent="1" target="t133rngRoD3qEJf_6s0R-127" edge="1">
          <mxGeometry width="50" height="50" relative="1" as="geometry">
            <mxPoint x="1836.6633333333339" y="821.9900000000002" as="sourcePoint" />
            <mxPoint x="1986.666666666667" y="820.0000000000002" as="targetPoint" />
            <Array as="points">
              <mxPoint x="2076" y="822" />
            </Array>
          </mxGeometry>
        </mxCell>
        <mxCell id="t133rngRoD3qEJf_6s0R-180" value="&lt;font style=&quot;font-size: 16px;&quot;&gt;1&lt;/font&gt;" style="text;html=1;align=center;verticalAlign=middle;resizable=0;points=[];autosize=1;strokeColor=none;fillColor=none;container=0;labelBackgroundColor=none;fontStyle=1;fontFamily=Times New Roman;fontSize=16;" parent="1" vertex="1">
          <mxGeometry x="1570.8333333333335" y="230" width="30" height="30" as="geometry" />
        </mxCell>
        <mxCell id="t133rngRoD3qEJf_6s0R-181" value="1" style="text;html=1;align=center;verticalAlign=middle;resizable=0;points=[];autosize=1;strokeColor=none;fillColor=none;container=0;labelBackgroundColor=none;fontStyle=1;fontFamily=Times New Roman;fontSize=16;" parent="1" vertex="1">
          <mxGeometry x="1650.0033333333336" y="230" width="30" height="30" as="geometry" />
        </mxCell>
        <mxCell id="t133rngRoD3qEJf_6s0R-182" value="&lt;font style=&quot;font-size: 16px;&quot;&gt;1&lt;/font&gt;" style="text;html=1;align=center;verticalAlign=middle;resizable=0;points=[];autosize=1;strokeColor=none;fillColor=none;container=0;labelBackgroundColor=none;fontStyle=1;fontFamily=Times New Roman;fontSize=16;" parent="1" vertex="1">
          <mxGeometry x="1570.8333333333335" y="470" width="30" height="30" as="geometry" />
        </mxCell>
        <mxCell id="t133rngRoD3qEJf_6s0R-183" value="*" style="text;html=1;align=center;verticalAlign=middle;resizable=0;points=[];autosize=1;strokeColor=none;fillColor=none;container=0;labelBackgroundColor=none;fontStyle=1;fontFamily=Times New Roman;fontSize=16;" parent="1" vertex="1">
          <mxGeometry x="1689.9933333333336" y="470" width="30" height="30" as="geometry" />
        </mxCell>
        <mxCell id="t133rngRoD3qEJf_6s0R-184" value="" style="endArrow=none;html=1;rounded=0;labelBackgroundColor=none;fontColor=default;fontStyle=1;fontFamily=Times New Roman;fontSize=16;entryX=0.673;entryY=-0.009;entryDx=0;entryDy=0;entryPerimeter=0;" parent="1" target="t133rngRoD3qEJf_6s0R-64" edge="1">
          <mxGeometry width="50" height="50" relative="1" as="geometry">
            <mxPoint x="1482" y="610" as="sourcePoint" />
            <mxPoint x="1514.92" y="671" as="targetPoint" />
          </mxGeometry>
        </mxCell>
        <mxCell id="t133rngRoD3qEJf_6s0R-185" value="&lt;font style=&quot;font-size: 16px;&quot;&gt;1&lt;/font&gt;" style="text;html=1;align=center;verticalAlign=middle;resizable=0;points=[];autosize=1;strokeColor=none;fillColor=none;container=0;labelBackgroundColor=none;fontStyle=1;fontFamily=Times New Roman;fontSize=16;" parent="1" vertex="1">
          <mxGeometry x="1480.0033333333336" y="620" width="30" height="30" as="geometry" />
        </mxCell>
        <mxCell id="t133rngRoD3qEJf_6s0R-186" value="*" style="text;html=1;align=center;verticalAlign=middle;resizable=0;points=[];autosize=1;strokeColor=none;fillColor=none;container=0;labelBackgroundColor=none;fontStyle=1;fontFamily=Times New Roman;fontSize=16;" parent="1" vertex="1">
          <mxGeometry x="1480.0033333333336" y="680" width="30" height="30" as="geometry" />
        </mxCell>
        <mxCell id="t133rngRoD3qEJf_6s0R-190" value="" style="endArrow=none;html=1;rounded=0;labelBackgroundColor=none;fontColor=default;fontStyle=1;fontFamily=Times New Roman;fontSize=16;exitX=0.998;exitY=0.077;exitDx=0;exitDy=0;exitPerimeter=0;" parent="1" source="t133rngRoD3qEJf_6s0R-93" edge="1">
          <mxGeometry width="50" height="50" relative="1" as="geometry">
            <mxPoint x="1216.67" y="560" as="sourcePoint" />
            <mxPoint x="1330" y="580" as="targetPoint" />
          </mxGeometry>
        </mxCell>
        <mxCell id="t133rngRoD3qEJf_6s0R-191" value="&lt;font style=&quot;font-size: 16px;&quot;&gt;1&lt;/font&gt;" style="text;html=1;align=center;verticalAlign=middle;resizable=0;points=[];autosize=1;strokeColor=none;fillColor=none;container=0;labelBackgroundColor=none;fontStyle=1;fontFamily=Times New Roman;fontSize=16;" parent="1" vertex="1">
          <mxGeometry x="1299.9933333333336" y="540" width="30" height="30" as="geometry" />
        </mxCell>
        <mxCell id="t133rngRoD3qEJf_6s0R-196" value="*" style="text;html=1;align=center;verticalAlign=middle;resizable=0;points=[];autosize=1;strokeColor=none;fillColor=none;container=0;labelBackgroundColor=none;fontStyle=1;fontFamily=Times New Roman;fontSize=16;" parent="1" vertex="1">
          <mxGeometry x="1100.0033333333336" y="540" width="30" height="30" as="geometry" />
        </mxCell>
        <mxCell id="t133rngRoD3qEJf_6s0R-197" value="" style="endArrow=none;html=1;rounded=0;labelBackgroundColor=none;fontColor=default;fontStyle=1;fontFamily=Times New Roman;fontSize=16;" parent="1" edge="1">
          <mxGeometry width="50" height="50" relative="1" as="geometry">
            <mxPoint x="1571" y="560" as="sourcePoint" />
            <mxPoint x="1690" y="750" as="targetPoint" />
            <Array as="points">
              <mxPoint x="1690" y="559" />
            </Array>
          </mxGeometry>
        </mxCell>
        <mxCell id="t133rngRoD3qEJf_6s0R-198" value="" style="endArrow=none;html=1;rounded=0;labelBackgroundColor=none;fontColor=default;fontStyle=1;fontFamily=Times New Roman;fontSize=16;exitX=0.618;exitY=0;exitDx=0;exitDy=0;exitPerimeter=0;" parent="1" source="t133rngRoD3qEJf_6s0R-136" edge="1">
          <mxGeometry width="50" height="50" relative="1" as="geometry">
            <mxPoint x="1236.67" y="580" as="sourcePoint" />
            <mxPoint x="1330" y="599" as="targetPoint" />
            <Array as="points">
              <mxPoint x="1160" y="599" />
            </Array>
          </mxGeometry>
        </mxCell>
        <mxCell id="t133rngRoD3qEJf_6s0R-199" value="&lt;font style=&quot;font-size: 16px;&quot;&gt;1&lt;/font&gt;" style="text;html=1;align=center;verticalAlign=middle;resizable=0;points=[];autosize=1;strokeColor=none;fillColor=none;container=0;labelBackgroundColor=none;fontStyle=1;fontFamily=Times New Roman;fontSize=16;" parent="1" vertex="1">
          <mxGeometry x="1290.0033333333336" y="605" width="30" height="30" as="geometry" />
        </mxCell>
        <mxCell id="t133rngRoD3qEJf_6s0R-200" value="&lt;font style=&quot;font-size: 16px;&quot;&gt;1&lt;/font&gt;" style="text;html=1;align=center;verticalAlign=middle;resizable=0;points=[];autosize=1;strokeColor=none;fillColor=none;container=0;labelBackgroundColor=none;fontStyle=1;fontFamily=Times New Roman;fontSize=16;" parent="1" vertex="1">
          <mxGeometry x="1160.0033333333336" y="721" width="30" height="30" as="geometry" />
        </mxCell>
        <mxCell id="t133rngRoD3qEJf_6s0R-201" value="&lt;font style=&quot;font-size: 16px;&quot;&gt;1&lt;/font&gt;" style="text;html=1;align=center;verticalAlign=middle;resizable=0;points=[];autosize=1;strokeColor=none;fillColor=none;container=0;labelBackgroundColor=none;fontStyle=1;fontFamily=Times New Roman;fontSize=16;" parent="1" vertex="1">
          <mxGeometry x="1570.8333333333335" y="560" width="30" height="30" as="geometry" />
        </mxCell>
        <mxCell id="t133rngRoD3qEJf_6s0R-202" value="&lt;font style=&quot;font-size: 16px;&quot;&gt;1&lt;/font&gt;" style="text;html=1;align=center;verticalAlign=middle;resizable=0;points=[];autosize=1;strokeColor=none;fillColor=none;container=0;labelBackgroundColor=none;fontStyle=1;fontFamily=Times New Roman;fontSize=16;" parent="1" vertex="1">
          <mxGeometry x="1650.0033333333336" y="710" width="30" height="30" as="geometry" />
        </mxCell>
        <mxCell id="t133rngRoD3qEJf_6s0R-208" value="" style="endArrow=none;html=1;rounded=0;labelBackgroundColor=none;fontColor=default;fontStyle=1;fontFamily=Times New Roman;fontSize=16;exitX=0.998;exitY=0.077;exitDx=0;exitDy=0;exitPerimeter=0;" parent="1" edge="1">
          <mxGeometry width="50" height="50" relative="1" as="geometry">
            <mxPoint x="1130" y="372" as="sourcePoint" />
            <mxPoint x="1330" y="370" as="targetPoint" />
          </mxGeometry>
        </mxCell>
        <mxCell id="t133rngRoD3qEJf_6s0R-209" value="&lt;font style=&quot;font-size: 16px;&quot;&gt;1&lt;/font&gt;" style="text;html=1;align=center;verticalAlign=middle;resizable=0;points=[];autosize=1;strokeColor=none;fillColor=none;container=0;labelBackgroundColor=none;fontStyle=1;fontFamily=Times New Roman;fontSize=16;" parent="1" vertex="1">
          <mxGeometry x="1299.9933333333336" y="340" width="30" height="30" as="geometry" />
        </mxCell>
        <mxCell id="t133rngRoD3qEJf_6s0R-215" value="&lt;font style=&quot;font-size: 16px;&quot;&gt;1&lt;/font&gt;" style="text;html=1;align=center;verticalAlign=middle;resizable=0;points=[];autosize=1;strokeColor=none;fillColor=none;container=0;labelBackgroundColor=none;fontStyle=1;fontFamily=Times New Roman;fontSize=16;" parent="1" vertex="1">
          <mxGeometry x="1130.0033333333336" y="340" width="30" height="30" as="geometry" />
        </mxCell>
        <mxCell id="z-_4gmY5qf_vdCTjNzWo-1" value="" style="endArrow=none;html=1;rounded=0;labelBackgroundColor=none;fontColor=default;fontStyle=1;fontFamily=Times New Roman;fontSize=16;" edge="1" parent="1">
          <mxGeometry width="50" height="50" relative="1" as="geometry">
            <mxPoint x="1120" y="900" as="sourcePoint" />
            <mxPoint x="2120" y="720" as="targetPoint" />
            <Array as="points">
              <mxPoint x="1120" y="1080" />
              <mxPoint x="2120" y="1080" />
            </Array>
          </mxGeometry>
        </mxCell>
        <mxCell id="z-_4gmY5qf_vdCTjNzWo-2" value="1" style="text;html=1;align=center;verticalAlign=middle;resizable=0;points=[];autosize=1;strokeColor=none;fillColor=none;" vertex="1" parent="1">
          <mxGeometry x="2045" y="718" width="30" height="30" as="geometry" />
        </mxCell>
        <mxCell id="z-_4gmY5qf_vdCTjNzWo-3" value="1" style="text;html=1;align=center;verticalAlign=middle;resizable=0;points=[];autosize=1;strokeColor=none;fillColor=none;" vertex="1" parent="1">
          <mxGeometry x="2115" y="718" width="30" height="30" as="geometry" />
        </mxCell>
        <mxCell id="z-_4gmY5qf_vdCTjNzWo-4" value="*" style="text;html=1;align=center;verticalAlign=middle;resizable=0;points=[];autosize=1;strokeColor=none;fillColor=none;" vertex="1" parent="1">
          <mxGeometry x="1085" y="898" width="30" height="30" as="geometry" />
        </mxCell>
        <mxCell id="z-_4gmY5qf_vdCTjNzWo-5" value="*" style="text;html=1;align=center;verticalAlign=middle;resizable=0;points=[];autosize=1;strokeColor=none;fillColor=none;" vertex="1" parent="1">
          <mxGeometry x="1835" y="748" width="30" height="30" as="geometry" />
        </mxCell>
      </root>
    </mxGraphModel>
  </diagram>
</mxfile>
